<?xml version="1.0" encoding="UTF-8"?>
<svg width="340" height="120" viewBox="0 0 340 120" fill="none" xmlns="http://www.w3.org/2000/svg">
    <defs>
        <!-- Gradient definitions -->
        <linearGradient id="chipGradient" x1="0" y1="0" x2="1" y2="1">
            <stop offset="0%" stop-color="oklch(0.704 0.191 303.216)"/>
            <stop offset="100%" stop-color="rgb(255, 246, 115)"/>
        </linearGradient>
        <linearGradient id="textGradient" x1="0%" y1="0%" x2="100%" y2="0%">
            <stop offset="0%" style="stop-color:rgb(255, 246, 115);stop-opacity:1" />
            <stop offset="100%" style="stop-color:oklch(0.704 0.191 303.216);stop-opacity:1" />
        </linearGradient>
    </defs>

    <!-- Chip body with rounded corners -->
    <rect x="20" y="20" width="80" height="80" rx="18" fill="#FFFFFF" stroke="#222" stroke-width="3"/>

    <!-- Pins (top/bottom/left/right) -->
    <g stroke="#FFF" stroke-width="1">
        <!-- Top pins -->
        <line x1="32" y1="14" x2="32" y2="20"/>
        <line x1="44" y1="10" x2="44" y2="20"/>
        <line x1="56" y1="8" x2="56" y2="20"/>
        <line x1="68" y1="8" x2="68" y2="20"/>
        <line x1="80" y1="10" x2="80" y2="20"/>
        <line x1="92" y1="14" x2="92" y2="20"/>
        <!-- Bottom pins -->
        <line x1="32" y1="100" x2="32" y2="106"/>
        <line x1="44" y1="100" x2="44" y2="112"/>
        <line x1="56" y1="100" x2="56" y2="112"/>
        <line x1="68" y1="100" x2="68" y2="112"/>
        <line x1="80" y1="100" x2="80" y2="112"/>
        <line x1="92" y1="100" x2="92" y2="106"/>
        <!-- Left pins -->
        <line x1="14" y1="32" x2="20" y2="32"/>
        <line x1="8" y1="44" x2="20" y2="44"/>
        <line x1="8" y1="56" x2="20" y2="56"/>
        <line x1="8" y1="68" x2="20" y2="68"/>
        <line x1="10" y1="80" x2="20" y2="80"/>
        <line x1="14" y1="92" x2="20" y2="92"/>
        <!-- Right pins -->
        <line x1="100" y1="32" x2="106" y2="32"/>
        <line x1="100" y1="44" x2="112" y2="44"/>
        <line x1="100" y1="56" x2="112" y2="56"/>
        <line x1="100" y1="68" x2="112" y2="68"/>
        <line x1="100" y1="80" x2="110" y2="80"/>
        <line x1="100" y1="92" x2="106" y2="92"/>
    </g>

    <!-- Circuit lines and dots inside chip -->
    <g stroke="#222" stroke-width="1" stroke-linecap="round">
        <polyline points="40,40 70,40 70,60 90,60"/>
        <polyline points="40,60 60,60 60,80 90,80"/>
        <polyline points="60,40 60,50 80,50"/>
        <polyline points="80,70 80,90"/>
    </g>

    <g fill="#000">
        <circle cx="70" cy="40" r="3"/>
        <circle cx="60" cy="60" r="3"/>
        <circle cx="80" cy="50" r="3"/>
        <circle cx="80" cy="70" r="3"/>
        <circle cx="90" cy="60" r="3"/>
        <circle cx="90" cy="80" r="3"/>
    </g>

    <!-- Text: Component (above), Club (below), vertically centered with chip -->
    <g font-family="Arial, Helvetica, sans-serif" font-weight="bold" text-anchor="start">
        <text x="130" y="52" font-size="32" fill="#fff">Component</text>
        <text x="130" y="92" font-size="28" fill="#fff">Club</text>
    </g>
</svg> 